%TF.GenerationSoftware,KiCad,Pcbnew,9.0.4*%
%TF.CreationDate,2025-10-25T13:09:07+02:00*%
%TF.ProjectId,orione-v2,6f72696f-6e65-42d7-9632-2e6b69636164,rev?*%
%TF.SameCoordinates,Original*%
%TF.FileFunction,Soldermask,Top*%
%TF.FilePolarity,Negative*%
%FSLAX46Y46*%
G04 Gerber Fmt 4.6, Leading zero omitted, Abs format (unit mm)*
G04 Created by KiCad (PCBNEW 9.0.4) date 2025-10-25 13:09:07*
%MOMM*%
%LPD*%
G01*
G04 APERTURE LIST*
G04 Aperture macros list*
%AMRoundRect*
0 Rectangle with rounded corners*
0 $1 Rounding radius*
0 $2 $3 $4 $5 $6 $7 $8 $9 X,Y pos of 4 corners*
0 Add a 4 corners polygon primitive as box body*
4,1,4,$2,$3,$4,$5,$6,$7,$8,$9,$2,$3,0*
0 Add four circle primitives for the rounded corners*
1,1,$1+$1,$2,$3*
1,1,$1+$1,$4,$5*
1,1,$1+$1,$6,$7*
1,1,$1+$1,$8,$9*
0 Add four rect primitives between the rounded corners*
20,1,$1+$1,$2,$3,$4,$5,0*
20,1,$1+$1,$4,$5,$6,$7,0*
20,1,$1+$1,$6,$7,$8,$9,0*
20,1,$1+$1,$8,$9,$2,$3,0*%
%AMFreePoly0*
4,1,37,0.800000,0.796148,0.878414,0.796148,1.032228,0.765552,1.177117,0.705537,1.307515,0.618408,1.418408,0.507515,1.505537,0.377117,1.565552,0.232228,1.596148,0.078414,1.596148,-0.078414,1.565552,-0.232228,1.505537,-0.377117,1.418408,-0.507515,1.307515,-0.618408,1.177117,-0.705537,1.032228,-0.765552,0.878414,-0.796148,0.800000,-0.796148,0.800000,-0.800000,-1.400000,-0.800000,
-1.403843,-0.796157,-1.439018,-0.796157,-1.511114,-0.766294,-1.566294,-0.711114,-1.596157,-0.639018,-1.596157,-0.603843,-1.600000,-0.600000,-1.600000,0.600000,-1.596157,0.603843,-1.596157,0.639018,-1.566294,0.711114,-1.511114,0.766294,-1.439018,0.796157,-1.403843,0.796157,-1.400000,0.800000,0.800000,0.800000,0.800000,0.796148,0.800000,0.796148,$1*%
%AMFreePoly1*
4,1,37,0.000000,0.796148,0.078414,0.796148,0.232228,0.765552,0.377117,0.705537,0.507515,0.618408,0.618408,0.507515,0.705537,0.377117,0.765552,0.232228,0.796148,0.078414,0.796148,-0.078414,0.765552,-0.232228,0.705537,-0.377117,0.618408,-0.507515,0.507515,-0.618408,0.377117,-0.705537,0.232228,-0.765552,0.078414,-0.796148,0.000000,-0.796148,0.000000,-0.800000,-0.600000,-0.800000,
-0.603843,-0.796157,-0.639018,-0.796157,-0.711114,-0.766294,-0.766294,-0.711114,-0.796157,-0.639018,-0.796157,-0.603843,-0.800000,-0.600000,-0.800000,0.600000,-0.796157,0.603843,-0.796157,0.639018,-0.766294,0.711114,-0.711114,0.766294,-0.639018,0.796157,-0.603843,0.796157,-0.600000,0.800000,0.000000,0.800000,0.000000,0.796148,0.000000,0.796148,$1*%
%AMFreePoly2*
4,1,37,0.603843,0.796157,0.639018,0.796157,0.711114,0.766294,0.766294,0.711114,0.796157,0.639018,0.796157,0.603843,0.800000,0.600000,0.800000,-0.600000,0.796157,-0.603843,0.796157,-0.639018,0.766294,-0.711114,0.711114,-0.766294,0.639018,-0.796157,0.603843,-0.796157,0.600000,-0.800000,0.000000,-0.800000,0.000000,-0.796148,-0.078414,-0.796148,-0.232228,-0.765552,-0.377117,-0.705537,
-0.507515,-0.618408,-0.618408,-0.507515,-0.705537,-0.377117,-0.765552,-0.232228,-0.796148,-0.078414,-0.796148,0.078414,-0.765552,0.232228,-0.705537,0.377117,-0.618408,0.507515,-0.507515,0.618408,-0.377117,0.705537,-0.232228,0.765552,-0.078414,0.796148,0.000000,0.796148,0.000000,0.800000,0.600000,0.800000,0.603843,0.796157,0.603843,0.796157,$1*%
%AMFreePoly3*
4,1,37,1.403843,0.796157,1.439018,0.796157,1.511114,0.766294,1.566294,0.711114,1.596157,0.639018,1.596157,0.603843,1.600000,0.600000,1.600000,-0.600000,1.596157,-0.603843,1.596157,-0.639018,1.566294,-0.711114,1.511114,-0.766294,1.439018,-0.796157,1.403843,-0.796157,1.400000,-0.800000,-0.800000,-0.800000,-0.800000,-0.796148,-0.878414,-0.796148,-1.032228,-0.765552,-1.177117,-0.705537,
-1.307515,-0.618408,-1.418408,-0.507515,-1.505537,-0.377117,-1.565552,-0.232228,-1.596148,-0.078414,-1.596148,0.078414,-1.565552,0.232228,-1.505537,0.377117,-1.418408,0.507515,-1.307515,0.618408,-1.177117,0.705537,-1.032228,0.765552,-0.878414,0.796148,-0.800000,0.796148,-0.800000,0.800000,1.400000,0.800000,1.403843,0.796157,1.403843,0.796157,$1*%
G04 Aperture macros list end*
%ADD10C,2.200000*%
%ADD11C,1.700000*%
%ADD12C,4.000000*%
%ADD13C,3.050000*%
%ADD14RoundRect,0.250000X-0.650000X-0.650000X0.650000X-0.650000X0.650000X0.650000X-0.650000X0.650000X0*%
%ADD15C,1.800000*%
%ADD16R,1.800000X1.800000*%
%ADD17R,1.700000X1.700000*%
%ADD18RoundRect,0.800000X-0.800000X-0.000010X0.800000X-0.000010X0.800000X0.000010X-0.800000X0.000010X0*%
%ADD19C,1.600000*%
%ADD20FreePoly0,0.000000*%
%ADD21FreePoly1,0.000000*%
%ADD22FreePoly2,0.000000*%
%ADD23FreePoly3,0.000000*%
%ADD24RoundRect,0.200000X-0.600000X-0.600000X0.600000X-0.600000X0.600000X0.600000X-0.600000X0.600000X0*%
%ADD25C,1.850000*%
G04 APERTURE END LIST*
D10*
%TO.C,SW1*%
X83662500Y-104247500D03*
X90012500Y-101707500D03*
D11*
X92552500Y-106787500D03*
D12*
X87472500Y-106787500D03*
D11*
X82392500Y-106787500D03*
%TD*%
D10*
%TO.C,SW2*%
X102712500Y-104247500D03*
X109062500Y-101707500D03*
D11*
X111602500Y-106787500D03*
D12*
X106522500Y-106787500D03*
D11*
X101442500Y-106787500D03*
%TD*%
D10*
%TO.C,SW3*%
X121762500Y-104247500D03*
X128112500Y-101707500D03*
D11*
X130652500Y-106787500D03*
D12*
X125572500Y-106787500D03*
D11*
X120492500Y-106787500D03*
%TD*%
D10*
%TO.C,SW4*%
X140812500Y-104247500D03*
X147162500Y-101707500D03*
D11*
X149702500Y-106787500D03*
D12*
X144622500Y-106787500D03*
D11*
X139542500Y-106787500D03*
%TD*%
D10*
%TO.C,SW5*%
X159862500Y-104247500D03*
X166212500Y-101707500D03*
D11*
X168752500Y-106787500D03*
D12*
X163672500Y-106787500D03*
D11*
X158592500Y-106787500D03*
%TD*%
D10*
%TO.C,SW6*%
X178912500Y-104247500D03*
X185262500Y-101707500D03*
D11*
X187802500Y-106787500D03*
D12*
X182722500Y-106787500D03*
D11*
X177642500Y-106787500D03*
%TD*%
D10*
%TO.C,SW7*%
X197962500Y-104247500D03*
X204312500Y-101707500D03*
D11*
X206852500Y-106787500D03*
D12*
X201772500Y-106787500D03*
D11*
X196692500Y-106787500D03*
%TD*%
D10*
%TO.C,SW8*%
X217012500Y-104247500D03*
X223362500Y-101707500D03*
D11*
X225902500Y-106787500D03*
D12*
X220822500Y-106787500D03*
D11*
X215742500Y-106787500D03*
%TD*%
D10*
%TO.C,SW9*%
X236062500Y-104247500D03*
X242412500Y-101707500D03*
D11*
X244952500Y-106787500D03*
D12*
X239872500Y-106787500D03*
D11*
X234792500Y-106787500D03*
%TD*%
D10*
%TO.C,SW10*%
X255112500Y-104247500D03*
X261462500Y-101707500D03*
D11*
X264002500Y-106787500D03*
D12*
X258922500Y-106787500D03*
D11*
X253842500Y-106787500D03*
%TD*%
D10*
%TO.C,SW11*%
X274162500Y-104247500D03*
X280512500Y-101707500D03*
D11*
X283052500Y-106787500D03*
D12*
X277972500Y-106787500D03*
D11*
X272892500Y-106787500D03*
%TD*%
D10*
%TO.C,SW12*%
X293212500Y-104247500D03*
X299562500Y-101707500D03*
D11*
X302102500Y-106787500D03*
D12*
X297022500Y-106787500D03*
D11*
X291942500Y-106787500D03*
%TD*%
D10*
%TO.C,SW13*%
X312262500Y-104247500D03*
X318612500Y-101707500D03*
D11*
X321152500Y-106787500D03*
D12*
X316072500Y-106787500D03*
D11*
X310992500Y-106787500D03*
%TD*%
D10*
%TO.C,SW14*%
X340837500Y-104247500D03*
X347187500Y-101707500D03*
D12*
X356547500Y-115027500D03*
D13*
X356547500Y-99787500D03*
D11*
X349727500Y-106787500D03*
D12*
X344647500Y-106787500D03*
D11*
X339567500Y-106787500D03*
D12*
X332747500Y-115027500D03*
D13*
X332747500Y-99787500D03*
%TD*%
D10*
%TO.C,SW15*%
X88425000Y-123297500D03*
X94775000Y-120757500D03*
D11*
X97315000Y-125837500D03*
D12*
X92235000Y-125837500D03*
D11*
X87155000Y-125837500D03*
%TD*%
D10*
%TO.C,SW16*%
X112237500Y-123297500D03*
X118587500Y-120757500D03*
D11*
X121127500Y-125837500D03*
D12*
X116047500Y-125837500D03*
D11*
X110967500Y-125837500D03*
%TD*%
D10*
%TO.C,SW17*%
X131287500Y-123297500D03*
X137637500Y-120757500D03*
D11*
X140177500Y-125837500D03*
D12*
X135097500Y-125837500D03*
D11*
X130017500Y-125837500D03*
%TD*%
D10*
%TO.C,SW18*%
X150337500Y-123297500D03*
X156687500Y-120757500D03*
D11*
X159227500Y-125837500D03*
D12*
X154147500Y-125837500D03*
D11*
X149067500Y-125837500D03*
%TD*%
D10*
%TO.C,SW19*%
X169387500Y-123297500D03*
X175737500Y-120757500D03*
D11*
X178277500Y-125837500D03*
D12*
X173197500Y-125837500D03*
D11*
X168117500Y-125837500D03*
%TD*%
D10*
%TO.C,SW20*%
X188437500Y-123297500D03*
X194787500Y-120757500D03*
D11*
X197327500Y-125837500D03*
D12*
X192247500Y-125837500D03*
D11*
X187167500Y-125837500D03*
%TD*%
D10*
%TO.C,SW21*%
X207487500Y-123297500D03*
X213837500Y-120757500D03*
D11*
X216377500Y-125837500D03*
D12*
X211297500Y-125837500D03*
D11*
X206217500Y-125837500D03*
%TD*%
D10*
%TO.C,SW22*%
X226537500Y-123297500D03*
X232887500Y-120757500D03*
D11*
X235427500Y-125837500D03*
D12*
X230347500Y-125837500D03*
D11*
X225267500Y-125837500D03*
%TD*%
D10*
%TO.C,SW23*%
X245587500Y-123297500D03*
X251937500Y-120757500D03*
D11*
X254477500Y-125837500D03*
D12*
X249397500Y-125837500D03*
D11*
X244317500Y-125837500D03*
%TD*%
D10*
%TO.C,SW24*%
X264637500Y-123297500D03*
X270987500Y-120757500D03*
D11*
X273527500Y-125837500D03*
D12*
X268447500Y-125837500D03*
D11*
X263367500Y-125837500D03*
%TD*%
D10*
%TO.C,SW25*%
X283687500Y-123297500D03*
X290037500Y-120757500D03*
D11*
X292577500Y-125837500D03*
D12*
X287497500Y-125837500D03*
D11*
X282417500Y-125837500D03*
%TD*%
D10*
%TO.C,SW26*%
X302737500Y-123297500D03*
X309087500Y-120757500D03*
D11*
X311627500Y-125837500D03*
D12*
X306547500Y-125837500D03*
D11*
X301467500Y-125837500D03*
%TD*%
D10*
%TO.C,SW27*%
X321787500Y-123297500D03*
X328137500Y-120757500D03*
D11*
X330677500Y-125837500D03*
D12*
X325597500Y-125837500D03*
D11*
X320517500Y-125837500D03*
%TD*%
%TO.C,SW28*%
X344330000Y-125837500D03*
D12*
X349410000Y-125837500D03*
D11*
X354490000Y-125837500D03*
D10*
X351950000Y-120757500D03*
X345600000Y-123297500D03*
%TD*%
%TO.C,SW29*%
X90806250Y-142347500D03*
X97156250Y-139807500D03*
D11*
X99696250Y-144887500D03*
D12*
X94616250Y-144887500D03*
D11*
X89536250Y-144887500D03*
%TD*%
D10*
%TO.C,SW30*%
X117000000Y-142347500D03*
X123350000Y-139807500D03*
D11*
X125890000Y-144887500D03*
D12*
X120810000Y-144887500D03*
D11*
X115730000Y-144887500D03*
%TD*%
D10*
%TO.C,SW31*%
X136050000Y-142347500D03*
X142400000Y-139807500D03*
D11*
X144940000Y-144887500D03*
D12*
X139860000Y-144887500D03*
D11*
X134780000Y-144887500D03*
%TD*%
D10*
%TO.C,SW32*%
X155100000Y-142347500D03*
X161450000Y-139807500D03*
D11*
X163990000Y-144887500D03*
D12*
X158910000Y-144887500D03*
D11*
X153830000Y-144887500D03*
%TD*%
D10*
%TO.C,SW33*%
X174150000Y-142347500D03*
X180500000Y-139807500D03*
D11*
X183040000Y-144887500D03*
D12*
X177960000Y-144887500D03*
D11*
X172880000Y-144887500D03*
%TD*%
D10*
%TO.C,SW34*%
X193200000Y-142347500D03*
X199550000Y-139807500D03*
D11*
X202090000Y-144887500D03*
D12*
X197010000Y-144887500D03*
D11*
X191930000Y-144887500D03*
%TD*%
D10*
%TO.C,SW35*%
X212250000Y-142347500D03*
X218600000Y-139807500D03*
D11*
X221140000Y-144887500D03*
D12*
X216060000Y-144887500D03*
D11*
X210980000Y-144887500D03*
%TD*%
D10*
%TO.C,SW36*%
X231300000Y-142347500D03*
X237650000Y-139807500D03*
D11*
X240190000Y-144887500D03*
D12*
X235110000Y-144887500D03*
D11*
X230030000Y-144887500D03*
%TD*%
D10*
%TO.C,SW37*%
X250350000Y-142347500D03*
X256700000Y-139807500D03*
D11*
X259240000Y-144887500D03*
D12*
X254160000Y-144887500D03*
D11*
X249080000Y-144887500D03*
%TD*%
D10*
%TO.C,SW38*%
X269400000Y-142347500D03*
X275750000Y-139807500D03*
D11*
X278290000Y-144887500D03*
D12*
X273210000Y-144887500D03*
D11*
X268130000Y-144887500D03*
%TD*%
D10*
%TO.C,SW39*%
X288450000Y-142347500D03*
X294800000Y-139807500D03*
D11*
X297340000Y-144887500D03*
D12*
X292260000Y-144887500D03*
D11*
X287180000Y-144887500D03*
%TD*%
D10*
%TO.C,SW40*%
X307500000Y-142347500D03*
X313850000Y-139807500D03*
D11*
X316390000Y-144887500D03*
D12*
X311310000Y-144887500D03*
D11*
X306230000Y-144887500D03*
%TD*%
D10*
%TO.C,SW41*%
X338456250Y-142347500D03*
X344806250Y-139807500D03*
D12*
X354166250Y-153127500D03*
D13*
X354166250Y-137887500D03*
D11*
X347346250Y-144887500D03*
D12*
X342266250Y-144887500D03*
D11*
X337186250Y-144887500D03*
D12*
X330366250Y-153127500D03*
D13*
X330366250Y-137887500D03*
%TD*%
D10*
%TO.C,SW42*%
X95568750Y-161397500D03*
X101918750Y-158857500D03*
D12*
X111278750Y-172177500D03*
D13*
X111278750Y-156937500D03*
D11*
X104458750Y-163937500D03*
D12*
X99378750Y-163937500D03*
D11*
X94298750Y-163937500D03*
D12*
X87478750Y-172177500D03*
D13*
X87478750Y-156937500D03*
%TD*%
D10*
%TO.C,SW43*%
X126525000Y-161397500D03*
X132875000Y-158857500D03*
D11*
X135415000Y-163937500D03*
D12*
X130335000Y-163937500D03*
D11*
X125255000Y-163937500D03*
%TD*%
D10*
%TO.C,SW44*%
X145575000Y-161397500D03*
X151925000Y-158857500D03*
D11*
X154465000Y-163937500D03*
D12*
X149385000Y-163937500D03*
D11*
X144305000Y-163937500D03*
%TD*%
D10*
%TO.C,SW45*%
X164625000Y-161397500D03*
X170975000Y-158857500D03*
D11*
X173515000Y-163937500D03*
D12*
X168435000Y-163937500D03*
D11*
X163355000Y-163937500D03*
%TD*%
D10*
%TO.C,SW46*%
X183675000Y-161397500D03*
X190025000Y-158857500D03*
D11*
X192565000Y-163937500D03*
D12*
X187485000Y-163937500D03*
D11*
X182405000Y-163937500D03*
%TD*%
D10*
%TO.C,SW47*%
X202725000Y-161397500D03*
X209075000Y-158857500D03*
D11*
X211615000Y-163937500D03*
D12*
X206535000Y-163937500D03*
D11*
X201455000Y-163937500D03*
%TD*%
D10*
%TO.C,SW48*%
X221775000Y-161397500D03*
X228125000Y-158857500D03*
D11*
X230665000Y-163937500D03*
D12*
X225585000Y-163937500D03*
D11*
X220505000Y-163937500D03*
%TD*%
D10*
%TO.C,SW49*%
X240825000Y-161397500D03*
X247175000Y-158857500D03*
D11*
X249715000Y-163937500D03*
D12*
X244635000Y-163937500D03*
D11*
X239555000Y-163937500D03*
%TD*%
D10*
%TO.C,SW50*%
X259875000Y-161397500D03*
X266225000Y-158857500D03*
D11*
X268765000Y-163937500D03*
D12*
X263685000Y-163937500D03*
D11*
X258605000Y-163937500D03*
%TD*%
D10*
%TO.C,SW51*%
X278925000Y-161397500D03*
X285275000Y-158857500D03*
D11*
X287815000Y-163937500D03*
D12*
X282735000Y-163937500D03*
D11*
X277655000Y-163937500D03*
%TD*%
D10*
%TO.C,SW52*%
X297975000Y-161397500D03*
X304325000Y-158857500D03*
D11*
X306865000Y-163937500D03*
D12*
X301785000Y-163937500D03*
D11*
X296705000Y-163937500D03*
%TD*%
D10*
%TO.C,SW53*%
X333693750Y-161397500D03*
X340043750Y-158857500D03*
D12*
X349403750Y-172177500D03*
D13*
X349403750Y-156937500D03*
D11*
X342583750Y-163937500D03*
D12*
X337503750Y-163937500D03*
D11*
X332423750Y-163937500D03*
D12*
X325603750Y-172177500D03*
D13*
X325603750Y-156937500D03*
%TD*%
D10*
%TO.C,SW54*%
X86043750Y-180447500D03*
X92393750Y-177907500D03*
D11*
X94933750Y-182987500D03*
D12*
X89853750Y-182987500D03*
D11*
X84773750Y-182987500D03*
%TD*%
D10*
%TO.C,SW55*%
X109856250Y-180447500D03*
X116206250Y-177907500D03*
D11*
X118746250Y-182987500D03*
D12*
X113666250Y-182987500D03*
D11*
X108586250Y-182987500D03*
%TD*%
D10*
%TO.C,SW56*%
X133668750Y-180447500D03*
X140018750Y-177907500D03*
D11*
X142558750Y-182987500D03*
D12*
X137478750Y-182987500D03*
D11*
X132398750Y-182987500D03*
%TD*%
D10*
%TO.C,SW57*%
X205106250Y-180447500D03*
X211456250Y-177907500D03*
D12*
X258916250Y-191227500D03*
D13*
X258916250Y-175987500D03*
D11*
X213996250Y-182987500D03*
D12*
X208916250Y-182987500D03*
D11*
X203836250Y-182987500D03*
D12*
X158916250Y-191227500D03*
D13*
X158916250Y-175987500D03*
%TD*%
D10*
%TO.C,SW58*%
X274162500Y-180447500D03*
X280512500Y-177907500D03*
D11*
X283052500Y-182987500D03*
D12*
X277972500Y-182987500D03*
D11*
X272892500Y-182987500D03*
%TD*%
D10*
%TO.C,SW59*%
X293212500Y-180447500D03*
X299562500Y-177907500D03*
D11*
X302102500Y-182987500D03*
D12*
X297022500Y-182987500D03*
D11*
X291942500Y-182987500D03*
%TD*%
D10*
%TO.C,SW60*%
X312262500Y-180447500D03*
X318612500Y-177907500D03*
D11*
X321152500Y-182987500D03*
D12*
X316072500Y-182987500D03*
D11*
X310992500Y-182987500D03*
%TD*%
D10*
%TO.C,SW61*%
X331312500Y-180447500D03*
X337662500Y-177907500D03*
D11*
X340202500Y-182987500D03*
D12*
X335122500Y-182987500D03*
D11*
X330042500Y-182987500D03*
%TD*%
D10*
%TO.C,SW62*%
X350362500Y-180447500D03*
X356712500Y-177907500D03*
D11*
X359252500Y-182987500D03*
D12*
X354172500Y-182987500D03*
D11*
X349092500Y-182987500D03*
%TD*%
D14*
%TO.C,D7*%
X195667500Y-79662500D03*
D15*
X203287500Y-79662500D03*
%TD*%
D14*
%TO.C,D38*%
X255187500Y-86070000D03*
D15*
X262807500Y-86070000D03*
%TD*%
D14*
%TO.C,D50*%
X237810000Y-89280000D03*
D15*
X245430000Y-89280000D03*
%TD*%
D14*
%TO.C,D55*%
X108850000Y-92480000D03*
D15*
X116470000Y-92480000D03*
%TD*%
D14*
%TO.C,D11*%
X270067500Y-79662500D03*
D15*
X277687500Y-79662500D03*
%TD*%
D10*
%TO.C,REF\u002A\u002A*%
X82902500Y-94305000D03*
%TD*%
D14*
%TO.C,D2*%
X98947500Y-79662500D03*
D15*
X106567500Y-79662500D03*
%TD*%
D14*
%TO.C,D23*%
X232850000Y-82860000D03*
D15*
X240470000Y-82860000D03*
%TD*%
D14*
%TO.C,D15*%
X81587500Y-82862500D03*
D15*
X89207500Y-82862500D03*
%TD*%
D14*
%TO.C,D24*%
X252700000Y-82860000D03*
D15*
X260320000Y-82860000D03*
%TD*%
D14*
%TO.C,D37*%
X235340000Y-86070000D03*
D15*
X242960000Y-86070000D03*
%TD*%
D14*
%TO.C,D44*%
X126197500Y-89275000D03*
D15*
X133817500Y-89275000D03*
%TD*%
%TO.C,D63*%
X62253460Y-171470000D03*
D16*
X59713460Y-171470000D03*
%TD*%
D14*
%TO.C,D48*%
X203100000Y-89280000D03*
D15*
X210720000Y-89280000D03*
%TD*%
D14*
%TO.C,D21*%
X198140000Y-82860000D03*
D15*
X205760000Y-82860000D03*
%TD*%
D14*
%TO.C,D8*%
X213027500Y-79662500D03*
D15*
X220647500Y-79662500D03*
%TD*%
D14*
%TO.C,D9*%
X230387500Y-79662500D03*
D15*
X238007500Y-79662500D03*
%TD*%
D14*
%TO.C,D57*%
X185730000Y-92490000D03*
D15*
X193350000Y-92490000D03*
%TD*%
D14*
%TO.C,D43*%
X106360000Y-89280000D03*
D15*
X113980000Y-89280000D03*
%TD*%
D14*
%TO.C,D14*%
X329587500Y-79662500D03*
D15*
X337207500Y-79662500D03*
%TD*%
D14*
%TO.C,D59*%
X279970000Y-92490000D03*
D15*
X287590000Y-92490000D03*
%TD*%
D14*
%TO.C,D62*%
X339490000Y-92530000D03*
D15*
X347110000Y-92530000D03*
%TD*%
D14*
%TO.C,D35*%
X200610000Y-86070000D03*
D15*
X208230000Y-86070000D03*
%TD*%
D14*
%TO.C,D33*%
X163427500Y-86062500D03*
D15*
X171047500Y-86062500D03*
%TD*%
D14*
%TO.C,D28*%
X332050000Y-82870000D03*
D15*
X339670000Y-82870000D03*
%TD*%
D10*
%TO.C,REF\u002A\u002A*%
X225585000Y-182987500D03*
%TD*%
D14*
%TO.C,D47*%
X183260000Y-89280000D03*
D15*
X190880000Y-89280000D03*
%TD*%
D14*
%TO.C,D3*%
X118787500Y-79662500D03*
D15*
X126407500Y-79662500D03*
%TD*%
D17*
%TO.C,J1*%
X55938460Y-160970000D03*
D11*
X58478460Y-160970000D03*
X61018460Y-160970000D03*
X63558460Y-160970000D03*
X66098460Y-160970000D03*
%TD*%
D14*
%TO.C,D10*%
X250227500Y-79662500D03*
D15*
X257847500Y-79662500D03*
%TD*%
D14*
%TO.C,D34*%
X180787500Y-86070000D03*
D15*
X188407500Y-86070000D03*
%TD*%
D14*
%TO.C,D46*%
X165900000Y-89270000D03*
D15*
X173520000Y-89270000D03*
%TD*%
D14*
%TO.C,D52*%
X277500000Y-89280000D03*
D15*
X285120000Y-89280000D03*
%TD*%
D14*
%TO.C,D49*%
X220460000Y-89280000D03*
D15*
X228080000Y-89280000D03*
%TD*%
D14*
%TO.C,D30*%
X103870000Y-86080000D03*
D15*
X111490000Y-86080000D03*
%TD*%
D14*
%TO.C,D25*%
X272547500Y-82865000D03*
D15*
X280167500Y-82865000D03*
%TD*%
D14*
%TO.C,D51*%
X257660000Y-89280000D03*
D15*
X265280000Y-89280000D03*
%TD*%
D14*
%TO.C,D32*%
X143587500Y-86065000D03*
D15*
X151207500Y-86065000D03*
%TD*%
D10*
%TO.C,REF\u002A\u002A*%
X356547500Y-164205000D03*
%TD*%
%TO.C,REF\u002A\u002A*%
X220822500Y-94305000D03*
%TD*%
D14*
%TO.C,D22*%
X215500000Y-82860000D03*
D15*
X223120000Y-82860000D03*
%TD*%
D14*
%TO.C,D45*%
X146067500Y-89265000D03*
D15*
X153687500Y-89265000D03*
%TD*%
D14*
%TO.C,D58*%
X260130000Y-92490000D03*
D15*
X267750000Y-92490000D03*
%TD*%
D14*
%TO.C,D13*%
X309747500Y-79662500D03*
D15*
X317367500Y-79662500D03*
%TD*%
D14*
%TO.C,D16*%
X101410000Y-82880000D03*
D15*
X109030000Y-82880000D03*
%TD*%
D10*
%TO.C,REF\u002A\u002A*%
X356547500Y-86055000D03*
%TD*%
D14*
%TO.C,D4*%
X138627500Y-79662500D03*
D15*
X146247500Y-79662500D03*
%TD*%
D14*
%TO.C,D31*%
X123720000Y-86080000D03*
D15*
X131340000Y-86080000D03*
%TD*%
D14*
%TO.C,D27*%
X312210000Y-82870000D03*
D15*
X319830000Y-82870000D03*
%TD*%
D14*
%TO.C,D12*%
X289907500Y-79665000D03*
D15*
X297527500Y-79665000D03*
%TD*%
D14*
%TO.C,D60*%
X299827500Y-92455000D03*
D15*
X307447500Y-92455000D03*
%TD*%
D14*
%TO.C,D42*%
X86520000Y-89280000D03*
D15*
X94140000Y-89280000D03*
%TD*%
D14*
%TO.C,D6*%
X175827500Y-79662500D03*
D15*
X183447500Y-79662500D03*
%TD*%
D14*
%TO.C,D26*%
X292387500Y-82862500D03*
D15*
X300007500Y-82862500D03*
%TD*%
D14*
%TO.C,D1*%
X79097500Y-79662500D03*
D15*
X86717500Y-79662500D03*
%TD*%
D10*
%TO.C,REF\u002A\u002A*%
X61712500Y-182987500D03*
%TD*%
D14*
%TO.C,D18*%
X141107500Y-82862500D03*
D15*
X148727500Y-82862500D03*
%TD*%
D14*
%TO.C,D40*%
X294860000Y-86070000D03*
D15*
X302480000Y-86070000D03*
%TD*%
D14*
%TO.C,D5*%
X158467500Y-79662500D03*
D15*
X166087500Y-79662500D03*
%TD*%
D14*
%TO.C,D41*%
X334530000Y-86090000D03*
D15*
X342150000Y-86090000D03*
%TD*%
D14*
%TO.C,D29*%
X84060000Y-86070000D03*
D15*
X91680000Y-86070000D03*
%TD*%
D14*
%TO.C,D56*%
X128667500Y-92470000D03*
D15*
X136287500Y-92470000D03*
%TD*%
D14*
%TO.C,D39*%
X275010000Y-86070000D03*
D15*
X282630000Y-86070000D03*
%TD*%
D14*
%TO.C,D53*%
X337027500Y-89310000D03*
D15*
X344647500Y-89310000D03*
%TD*%
D14*
%TO.C,D54*%
X89000000Y-92490000D03*
D15*
X96620000Y-92490000D03*
%TD*%
D14*
%TO.C,D61*%
X319667500Y-92455000D03*
D15*
X327287500Y-92455000D03*
%TD*%
D14*
%TO.C,D17*%
X121240000Y-82870000D03*
D15*
X128860000Y-82870000D03*
%TD*%
D14*
%TO.C,D20*%
X178307500Y-82862500D03*
D15*
X185927500Y-82862500D03*
%TD*%
D14*
%TO.C,D36*%
X217987500Y-86070000D03*
D15*
X225607500Y-86070000D03*
%TD*%
D14*
%TO.C,D19*%
X160930000Y-82870000D03*
D15*
X168550000Y-82870000D03*
%TD*%
D18*
%TO.C,A1*%
X70722100Y-78665000D03*
D19*
X69922100Y-78665000D03*
D18*
X70722100Y-81205000D03*
D19*
X69922100Y-81205000D03*
D20*
X70722100Y-83745000D03*
D21*
X69922100Y-83745000D03*
D18*
X70722100Y-86285000D03*
D19*
X69922100Y-86285000D03*
D18*
X70722100Y-88825000D03*
D19*
X69922100Y-88825000D03*
D18*
X70722100Y-91365000D03*
D19*
X69922100Y-91365000D03*
D18*
X70722100Y-93905000D03*
D19*
X69922100Y-93905000D03*
D20*
X70722100Y-96445000D03*
D21*
X69922100Y-96445000D03*
D18*
X70722100Y-98985000D03*
D19*
X69922100Y-98985000D03*
D18*
X70722100Y-101525000D03*
D19*
X69922100Y-101525000D03*
D18*
X70722100Y-104065000D03*
D19*
X69922100Y-104065000D03*
D18*
X70722100Y-106605000D03*
D19*
X69922100Y-106605000D03*
D20*
X70722100Y-109145000D03*
D21*
X69922100Y-109145000D03*
D18*
X70722100Y-111685000D03*
D19*
X69922100Y-111685000D03*
D18*
X70722100Y-114225000D03*
D19*
X69922100Y-114225000D03*
D18*
X70722100Y-116765000D03*
D19*
X69922100Y-116765000D03*
D18*
X70722100Y-119305000D03*
D19*
X69922100Y-119305000D03*
D20*
X70722100Y-121845000D03*
D21*
X69922100Y-121845000D03*
D18*
X70722100Y-124385000D03*
D19*
X69922100Y-124385000D03*
D18*
X70722100Y-126925000D03*
D19*
X69922100Y-126925000D03*
X52142100Y-126925000D03*
D18*
X51342100Y-126925000D03*
D19*
X52142100Y-124385000D03*
D18*
X51342100Y-124385000D03*
D22*
X52142100Y-121845000D03*
D23*
X51342100Y-121845000D03*
D19*
X52142100Y-119305000D03*
D18*
X51342100Y-119305000D03*
D19*
X52142100Y-116765000D03*
D18*
X51342100Y-116765000D03*
D19*
X52142100Y-114225000D03*
D18*
X51342100Y-114225000D03*
D19*
X52142100Y-111685000D03*
D18*
X51342100Y-111685000D03*
D22*
X52142100Y-109145000D03*
D23*
X51342100Y-109145000D03*
D19*
X52142100Y-106605000D03*
D18*
X51342100Y-106605000D03*
D19*
X52142100Y-104065000D03*
D18*
X51342100Y-104065000D03*
D19*
X52142100Y-101525000D03*
D18*
X51342100Y-101525000D03*
D19*
X52142100Y-98985000D03*
D18*
X51342100Y-98985000D03*
D22*
X52142100Y-96445000D03*
D23*
X51342100Y-96445000D03*
D19*
X52142100Y-93905000D03*
D18*
X51342100Y-93905000D03*
D19*
X52142100Y-91365000D03*
D18*
X51342100Y-91365000D03*
D19*
X52142100Y-88825000D03*
D18*
X51342100Y-88825000D03*
D19*
X52142100Y-86285000D03*
D18*
X51342100Y-86285000D03*
D22*
X52142100Y-83745000D03*
D23*
X51342100Y-83745000D03*
D19*
X52142100Y-81205000D03*
D18*
X51342100Y-81205000D03*
D24*
X52142100Y-78665000D03*
D20*
X51342100Y-78665000D03*
D10*
X63757100Y-78795000D03*
D25*
X63457100Y-81825000D03*
X58607100Y-81825000D03*
D10*
X58307100Y-78795000D03*
%TD*%
M02*
