M48
; DRILL file {KiCad 9.0.4} date 2025-10-25T14:38:08+0200
; FORMAT={-:-/ absolute / metric / decimal}
; #@! TF.CreationDate,2025-10-25T14:38:08+02:00
; #@! TF.GenerationSoftware,Kicad,Pcbnew,9.0.4
; #@! TF.FileFunction,Plated,1,2,PTH
FMAT,2
METRIC
; #@! TA.AperFunction,Plated,PTH,ViaDrill
T1C0.300
; #@! TA.AperFunction,Plated,PTH,ComponentDrill
T2C0.900
; #@! TA.AperFunction,Plated,PTH,ComponentDrill
T3C1.000
; #@! TA.AperFunction,Plated,PTH,ComponentDrill
T4C1.500
%
G90
G05
T1
X48.714Y-142.851
X50.164Y-143.452
X51.613Y-144.053
X52.5Y-132.09
X53.063Y-144.654
X54.512Y-145.255
X62.42Y-112.54
X66.42Y-112.49
X74.97Y-121.79
X75.46Y-82.77
T2
X59.713Y-171.47
X62.253Y-171.47
X79.097Y-79.662
X81.587Y-82.862
X84.06Y-86.07
X86.52Y-89.28
X86.718Y-79.662
X89.0Y-92.49
X89.207Y-82.862
X91.68Y-86.07
X94.14Y-89.28
X96.62Y-92.49
X98.947Y-79.662
X101.41Y-82.88
X103.87Y-86.08
X106.36Y-89.28
X106.567Y-79.662
X108.85Y-92.48
X109.03Y-82.88
X111.49Y-86.08
X113.98Y-89.28
X116.47Y-92.48
X118.787Y-79.662
X121.24Y-82.87
X123.72Y-86.08
X126.197Y-89.275
X126.407Y-79.662
X128.667Y-92.47
X128.86Y-82.87
X131.34Y-86.08
X133.817Y-89.275
X136.287Y-92.47
X138.627Y-79.662
X141.107Y-82.862
X143.588Y-86.065
X146.067Y-89.265
X146.248Y-79.662
X148.727Y-82.862
X151.207Y-86.065
X153.688Y-89.265
X158.468Y-79.662
X160.93Y-82.87
X163.427Y-86.062
X165.9Y-89.27
X166.088Y-79.662
X168.55Y-82.87
X171.047Y-86.062
X173.52Y-89.27
X175.827Y-79.662
X178.308Y-82.862
X180.787Y-86.07
X183.26Y-89.28
X183.447Y-79.662
X185.73Y-92.49
X185.927Y-82.862
X188.407Y-86.07
X190.88Y-89.28
X193.35Y-92.49
X195.667Y-79.662
X198.14Y-82.86
X200.61Y-86.07
X203.1Y-89.28
X203.287Y-79.662
X205.76Y-82.86
X208.23Y-86.07
X210.72Y-89.28
X213.028Y-79.662
X215.5Y-82.86
X217.987Y-86.07
X220.46Y-89.28
X220.647Y-79.662
X223.12Y-82.86
X225.607Y-86.07
X228.08Y-89.28
X230.387Y-79.662
X232.85Y-82.86
X235.34Y-86.07
X237.81Y-89.28
X238.007Y-79.662
X240.47Y-82.86
X242.96Y-86.07
X245.43Y-89.28
X250.227Y-79.662
X252.7Y-82.86
X255.188Y-86.07
X257.66Y-89.28
X257.847Y-79.662
X260.13Y-92.49
X260.32Y-82.86
X262.808Y-86.07
X265.28Y-89.28
X267.75Y-92.49
X270.067Y-79.662
X272.548Y-82.865
X275.01Y-86.07
X277.5Y-89.28
X277.688Y-79.662
X279.97Y-92.49
X280.167Y-82.865
X282.63Y-86.07
X285.12Y-89.28
X287.59Y-92.49
X289.907Y-79.665
X292.387Y-82.862
X294.86Y-86.07
X297.527Y-79.665
X299.827Y-92.455
X300.007Y-82.862
X302.48Y-86.07
X307.447Y-92.455
X309.748Y-79.662
X312.21Y-82.87
X317.368Y-79.662
X319.667Y-92.455
X319.83Y-82.87
X327.287Y-92.455
X329.587Y-79.662
X332.05Y-82.87
X334.53Y-86.09
X337.027Y-89.31
X337.207Y-79.662
X339.49Y-92.53
X339.67Y-82.87
X342.15Y-86.09
X344.647Y-89.31
X347.11Y-92.53
T3
X52.142Y-78.665
X52.142Y-81.205
X52.142Y-83.745
X52.142Y-86.285
X52.142Y-88.825
X52.142Y-91.365
X52.142Y-93.905
X52.142Y-96.445
X52.142Y-98.985
X52.142Y-101.525
X52.142Y-104.065
X52.142Y-106.605
X52.142Y-109.145
X52.142Y-111.685
X52.142Y-114.225
X52.142Y-116.765
X52.142Y-119.305
X52.142Y-121.845
X52.142Y-124.385
X52.142Y-126.925
X55.938Y-160.97
X58.478Y-160.97
X61.018Y-160.97
X63.558Y-160.97
X66.098Y-160.97
X69.922Y-78.665
X69.922Y-81.205
X69.922Y-83.745
X69.922Y-86.285
X69.922Y-88.825
X69.922Y-91.365
X69.922Y-93.905
X69.922Y-96.445
X69.922Y-98.985
X69.922Y-101.525
X69.922Y-104.065
X69.922Y-106.605
X69.922Y-109.145
X69.922Y-111.685
X69.922Y-114.225
X69.922Y-116.765
X69.922Y-119.305
X69.922Y-121.845
X69.922Y-124.385
X69.922Y-126.925
T4
X83.662Y-104.248
X86.044Y-180.447
X88.425Y-123.297
X90.013Y-101.707
X90.806Y-142.347
X92.394Y-177.907
X94.775Y-120.757
X95.569Y-161.397
X97.156Y-139.808
X101.919Y-158.857
X102.712Y-104.248
X109.062Y-101.707
X109.856Y-180.447
X112.237Y-123.297
X116.206Y-177.907
X117.0Y-142.347
X118.587Y-120.757
X121.762Y-104.248
X123.35Y-139.808
X126.525Y-161.397
X128.112Y-101.707
X131.287Y-123.297
X132.875Y-158.857
X133.669Y-180.447
X136.05Y-142.347
X137.637Y-120.757
X140.019Y-177.907
X140.812Y-104.248
X142.4Y-139.808
X145.575Y-161.397
X147.162Y-101.707
X150.338Y-123.297
X151.925Y-158.857
X155.1Y-142.347
X156.688Y-120.757
X159.862Y-104.248
X161.45Y-139.808
X164.625Y-161.397
X166.213Y-101.707
X169.387Y-123.297
X170.975Y-158.857
X174.15Y-142.347
X175.737Y-120.757
X178.912Y-104.248
X180.5Y-139.808
X183.675Y-161.397
X185.262Y-101.707
X188.438Y-123.297
X190.025Y-158.857
X193.2Y-142.347
X194.787Y-120.757
X197.962Y-104.248
X199.55Y-139.808
X202.725Y-161.397
X204.312Y-101.707
X205.106Y-180.447
X207.487Y-123.297
X209.075Y-158.857
X211.456Y-177.907
X212.25Y-142.347
X213.837Y-120.757
X217.012Y-104.248
X218.6Y-139.808
X221.775Y-161.397
X223.362Y-101.707
X226.537Y-123.297
X228.125Y-158.857
X231.3Y-142.347
X232.887Y-120.757
X236.062Y-104.248
X237.65Y-139.808
X240.825Y-161.397
X242.412Y-101.707
X245.587Y-123.297
X247.175Y-158.857
X250.35Y-142.347
X251.938Y-120.757
X255.112Y-104.248
X256.7Y-139.808
X259.875Y-161.397
X261.462Y-101.707
X264.637Y-123.297
X266.225Y-158.857
X269.4Y-142.347
X270.988Y-120.757
X274.162Y-104.248
X274.162Y-180.447
X275.75Y-139.808
X278.925Y-161.397
X280.512Y-101.707
X280.512Y-177.907
X283.688Y-123.297
X285.275Y-158.857
X288.45Y-142.347
X290.037Y-120.757
X293.212Y-104.248
X293.212Y-180.447
X294.8Y-139.808
X297.975Y-161.397
X299.562Y-101.707
X299.562Y-177.907
X302.738Y-123.297
X304.325Y-158.857
X307.5Y-142.347
X309.087Y-120.757
X312.262Y-104.248
X312.262Y-180.447
X313.85Y-139.808
X318.613Y-101.707
X318.613Y-177.907
X321.787Y-123.297
X328.137Y-120.757
X331.312Y-180.447
X333.694Y-161.397
X337.662Y-177.907
X338.456Y-142.347
X340.044Y-158.857
X340.837Y-104.248
X344.806Y-139.808
X345.6Y-123.297
X347.188Y-101.707
X350.363Y-180.447
X351.95Y-120.757
X356.712Y-177.907
M30
