M48
; DRILL file {KiCad 9.0.4} date 2025-10-25T14:38:08+0200
; FORMAT={-:-/ absolute / metric / decimal}
; #@! TF.CreationDate,2025-10-25T14:38:08+02:00
; #@! TF.GenerationSoftware,Kicad,Pcbnew,9.0.4
; #@! TF.FileFunction,NonPlated,1,2,NPTH
FMAT,2
METRIC
; #@! TA.AperFunction,NonPlated,NPTH,ComponentDrill
T1C1.700
; #@! TA.AperFunction,NonPlated,NPTH,ComponentDrill
T2C1.850
; #@! TA.AperFunction,NonPlated,NPTH,ComponentDrill
T3C2.200
; #@! TA.AperFunction,NonPlated,NPTH,ComponentDrill
T4C3.050
; #@! TA.AperFunction,NonPlated,NPTH,ComponentDrill
T5C4.000
%
G90
G05
T1
X82.392Y-106.787
X84.774Y-182.987
X87.155Y-125.837
X89.536Y-144.887
X92.552Y-106.787
X94.299Y-163.938
X94.934Y-182.987
X97.315Y-125.837
X99.696Y-144.887
X101.442Y-106.787
X104.459Y-163.938
X108.586Y-182.987
X110.968Y-125.837
X111.602Y-106.787
X115.73Y-144.887
X118.746Y-182.987
X120.492Y-106.787
X121.127Y-125.837
X125.255Y-163.938
X125.89Y-144.887
X130.017Y-125.837
X130.653Y-106.787
X132.399Y-182.987
X134.78Y-144.887
X135.415Y-163.938
X139.542Y-106.787
X140.177Y-125.837
X142.559Y-182.987
X144.305Y-163.938
X144.94Y-144.887
X149.067Y-125.837
X149.702Y-106.787
X153.83Y-144.887
X154.465Y-163.938
X158.593Y-106.787
X159.227Y-125.837
X163.355Y-163.938
X163.99Y-144.887
X168.117Y-125.837
X168.752Y-106.787
X172.88Y-144.887
X173.515Y-163.938
X177.642Y-106.787
X178.278Y-125.837
X182.405Y-163.938
X183.04Y-144.887
X187.167Y-125.837
X187.802Y-106.787
X191.93Y-144.887
X192.565Y-163.938
X196.692Y-106.787
X197.327Y-125.837
X201.455Y-163.938
X202.09Y-144.887
X203.836Y-182.987
X206.218Y-125.837
X206.852Y-106.787
X210.98Y-144.887
X211.615Y-163.938
X213.996Y-182.987
X215.742Y-106.787
X216.377Y-125.837
X220.505Y-163.938
X221.14Y-144.887
X225.267Y-125.837
X225.903Y-106.787
X230.03Y-144.887
X230.665Y-163.938
X234.792Y-106.787
X235.427Y-125.837
X239.555Y-163.938
X240.19Y-144.887
X244.317Y-125.837
X244.952Y-106.787
X249.08Y-144.887
X249.715Y-163.938
X253.843Y-106.787
X254.477Y-125.837
X258.605Y-163.938
X259.24Y-144.887
X263.368Y-125.837
X264.002Y-106.787
X268.13Y-144.887
X268.765Y-163.938
X272.892Y-106.787
X272.892Y-182.987
X273.527Y-125.837
X277.655Y-163.938
X278.29Y-144.887
X282.417Y-125.837
X283.053Y-106.787
X283.053Y-182.987
X287.18Y-144.887
X287.815Y-163.938
X291.942Y-106.787
X291.942Y-182.987
X292.577Y-125.837
X296.705Y-163.938
X297.34Y-144.887
X301.467Y-125.837
X302.102Y-106.787
X302.102Y-182.987
X306.23Y-144.887
X306.865Y-163.938
X310.993Y-106.787
X310.993Y-182.987
X311.627Y-125.837
X316.39Y-144.887
X320.517Y-125.837
X321.152Y-106.787
X321.152Y-182.987
X330.042Y-182.987
X330.678Y-125.837
X332.424Y-163.938
X337.186Y-144.887
X339.567Y-106.787
X340.202Y-182.987
X342.584Y-163.938
X344.33Y-125.837
X347.346Y-144.887
X349.092Y-182.987
X349.727Y-106.787
X354.49Y-125.837
X359.252Y-182.987
T2
X58.607Y-81.825
X63.457Y-81.825
T3
X58.307Y-78.795
X61.712Y-182.987
X63.757Y-78.795
X82.902Y-94.305
X220.822Y-94.305
X225.585Y-182.987
X356.547Y-86.055
X356.547Y-164.205
T4
X87.479Y-156.938
X111.279Y-156.938
X158.916Y-175.987
X258.916Y-175.987
X325.604Y-156.938
X330.366Y-137.887
X332.748Y-99.787
X349.404Y-156.938
X354.166Y-137.887
X356.547Y-99.787
T5
X87.472Y-106.787
X87.479Y-172.177
X89.854Y-182.987
X92.235Y-125.837
X94.616Y-144.887
X99.379Y-163.938
X106.522Y-106.787
X111.279Y-172.177
X113.666Y-182.987
X116.047Y-125.837
X120.81Y-144.887
X125.572Y-106.787
X130.335Y-163.938
X135.097Y-125.837
X137.479Y-182.987
X139.86Y-144.887
X144.623Y-106.787
X149.385Y-163.938
X154.147Y-125.837
X158.91Y-144.887
X158.916Y-191.227
X163.672Y-106.787
X168.435Y-163.938
X173.197Y-125.837
X177.96Y-144.887
X182.722Y-106.787
X187.485Y-163.938
X192.248Y-125.837
X197.01Y-144.887
X201.772Y-106.787
X206.535Y-163.938
X208.916Y-182.987
X211.297Y-125.837
X216.06Y-144.887
X220.822Y-106.787
X225.585Y-163.938
X230.347Y-125.837
X235.11Y-144.887
X239.873Y-106.787
X244.635Y-163.938
X249.397Y-125.837
X254.16Y-144.887
X258.916Y-191.227
X258.923Y-106.787
X263.685Y-163.938
X268.447Y-125.837
X273.21Y-144.887
X277.972Y-106.787
X277.972Y-182.987
X282.735Y-163.938
X287.498Y-125.837
X292.26Y-144.887
X297.022Y-106.787
X297.022Y-182.987
X301.785Y-163.938
X306.548Y-125.837
X311.31Y-144.887
X316.072Y-106.787
X316.072Y-182.987
X325.597Y-125.837
X325.604Y-172.177
X330.366Y-153.127
X332.748Y-115.027
X335.123Y-182.987
X337.504Y-163.938
X342.266Y-144.887
X344.647Y-106.787
X349.404Y-172.177
X349.41Y-125.837
X354.166Y-153.127
X354.172Y-182.987
X356.547Y-115.027
M30
